<svg version="1.1" xmlns="http://www.w3.org/2000/svg" viewBox="0 0 1534.2735624084835 392.65764676106505" width="4602.8206872254505" height="1177.9729402831952">
  <!-- svg-source:excalidraw -->
  
  <defs>
    <style class="style-fonts">
      @font-face {
        font-family: "Virgil";
        src: url("https://excalidraw.com/Virgil.woff2");
      }
      @font-face {
        font-family: "Cascadia";
        src: url("https://excalidraw.com/Cascadia.woff2");
      }
    </style>
  </defs>
  <rect x="0" y="0" width="1534.2735624084835" height="392.65764676106505" fill="#ffffff"></rect><g stroke-linecap="round"><g transform="translate(275.1274949174011 339.4318678537908) rotate(0 66.25228913667615 0.1818975536133678)"><path d="M-0.44 -1.18 C21.68 -1.23, 110.57 -0.18, 132.94 0.01 M1.54 0.81 C23.47 0.94, 109.98 1.48, 131.96 1.55" stroke="#1e1e1e" stroke-width="4" fill="none"></path></g><g transform="translate(275.1274949174011 339.4318678537908) rotate(0 66.25228913667615 0.1818975536133678)"><path d="M132.37 3.28 L120.32 9.67 L117.25 -6.78 L131.72 1.44" stroke="none" stroke-width="0" fill="#1e1e1e" fill-rule="evenodd"></path><path d="M130.48 1.47 C127.62 4.47, 123.18 4.07, 118.26 8.48 M132.43 1.07 C127.33 3.32, 123.67 5.05, 118.14 8.14 M119.09 7.79 C118.07 3.1, 118.04 -0.27, 117.17 -3.89 M118.82 7.62 C118.91 3.7, 118.7 -1.52, 118.65 -5.26 M119.03 -6.33 C123.15 -3.87, 128.11 0.4, 131.5 1.45 M118.64 -4.71 C121.95 -4.16, 124.73 -1.84, 131.99 2.18 M131.96 1.55 C131.96 1.55, 131.96 1.55, 131.96 1.55 M131.96 1.55 C131.96 1.55, 131.96 1.55, 131.96 1.55" stroke="#1e1e1e" stroke-width="4" fill="none"></path></g></g><mask></mask><g stroke-linecap="round"><g transform="translate(406.38728757279307 306.4676566051882) rotate(0 -66.49299156529258 0.18276808078869067)"><path d="M0.19 0.73 C-21.91 0.64, -110.94 -0.19, -133.18 -0.46 M-1.17 0.07 C-22.83 0.13, -109.23 0.85, -130.82 0.83" stroke="#1e1e1e" stroke-width="4" fill="none"></path></g><g transform="translate(406.38728757279307 306.4676566051882) rotate(0 -66.49299156529258 0.18276808078869067)"><path d="M-130.49 1.26 L-119.13 -6.57 L-118.65 8.93 L-132.6 -0.21" stroke="none" stroke-width="0" fill="#1e1e1e" fill-rule="evenodd"></path><path d="M-129.91 -0.03 C-128 -1.75, -125.12 -1.59, -116.47 -4.21 M-130.46 0.68 C-127.91 -0.85, -124.86 -2.89, -116.75 -5.97 M-116.83 -5.1 C-117.37 0.13, -116.75 4.65, -117.22 8.2 M-117.25 -6.05 C-116.69 -1.77, -117.06 2.44, -117.07 7.05 M-117.72 7.29 C-121.06 5.43, -126.71 4.04, -130.02 1.17 M-116.95 7.21 C-120.94 5.85, -125.79 2.96, -130.58 0.52 M-130.82 0.83 C-130.82 0.83, -130.82 0.83, -130.82 0.83 M-130.82 0.83 C-130.82 0.83, -130.82 0.83, -130.82 0.83" stroke="#1e1e1e" stroke-width="4" fill="none"></path></g></g><mask></mask><g stroke-linecap="round" transform="translate(836.9556840116281 10) rotate(0 118 70.5)"><path d="M151.11 2.54 C165.26 3.67, 179.08 8.62, 190.65 14.29 C202.22 19.95, 213.24 28.47, 220.55 36.53 C227.87 44.58, 232.63 53.85, 234.55 62.63 C236.46 71.42, 235.92 80.51, 232.03 89.25 C228.14 97.99, 220.57 107.99, 211.21 115.06 C201.86 122.12, 189.14 127.45, 175.87 131.63 C162.6 135.82, 146.6 139.09, 131.62 140.17 C116.64 141.26, 100.56 140.56, 85.97 138.12 C71.38 135.68, 55.98 131.01, 44.08 125.52 C32.17 120.03, 21.68 113.01, 14.53 105.18 C7.38 97.35, 2.72 87.51, 1.18 78.56 C-0.36 69.61, 1.15 59.95, 5.28 51.47 C9.42 42.98, 16.66 34.84, 25.99 27.65 C35.31 20.46, 48.05 12.96, 61.21 8.33 C74.36 3.69, 87.74 0.19, 104.94 -0.16 C122.15 -0.51, 152.83 4.47, 164.44 6.23 C176.04 7.99, 175.3 9.46, 174.56 10.41 M124.88 -0.91 C139.23 -1.25, 157.42 3.92, 170.93 8.02 C184.44 12.12, 196.2 17.29, 205.92 23.69 C215.63 30.1, 224.22 37.72, 229.24 46.45 C234.27 55.18, 236.93 66.89, 236.08 76.08 C235.23 85.27, 230.64 93.6, 224.17 101.59 C217.7 109.58, 208.6 118.07, 197.26 124.04 C185.91 130, 170.63 134.36, 156.1 137.39 C141.58 140.42, 124.85 142.57, 110.11 142.23 C95.37 141.88, 81.12 139.54, 67.68 135.31 C54.24 131.07, 39.82 123.63, 29.46 116.84 C19.11 110.05, 10.47 102.95, 5.56 94.57 C0.65 86.2, -1.31 75.69, 0.01 66.6 C1.33 57.52, 6.74 48.38, 13.48 40.05 C20.22 31.73, 29.57 22.94, 40.45 16.65 C51.32 10.37, 64.73 5.29, 78.73 2.35 C92.73 -0.59, 116.64 -1.05, 124.43 -0.99 C132.21 -0.93, 125.47 1.34, 125.44 2.72" stroke="#1e1e1e" stroke-width="4" fill="none"></path></g><g transform="translate(896.4233338316155 68.6489719263484) rotate(0 58.59375 12)"><text x="58.59375" y="0" font-family="Cascadia, Segoe UI Emoji" font-size="20px" fill="#1e1e1e" text-anchor="middle" style="white-space: pre;" direction="ltr" dominant-baseline="text-before-edge">PostgreSQL</text></g><g stroke-linecap="round" transform="translate(835.7894753639607 264.2543595076496) rotate(0 125 51)"><path d="M25.5 0 M25.5 0 C85.6 -3.08, 148.5 -2.52, 224.5 0 M25.5 0 C65.36 0.99, 106.83 1.07, 224.5 0 M224.5 0 C243.13 0.85, 251.21 6.56, 250 25.5 M224.5 0 C241.84 -0.54, 250.39 7.09, 250 25.5 M250 25.5 C249.97 41.03, 250.88 53.59, 250 76.5 M250 25.5 C249.41 36.28, 249.51 49.44, 250 76.5 M250 76.5 C248.76 94.83, 239.62 103.31, 224.5 102 M250 76.5 C251.62 95.47, 243.68 104.05, 224.5 102 M224.5 102 C169.7 100.74, 112.39 99.66, 25.5 102 M224.5 102 C172.2 100.94, 122.16 101.4, 25.5 102 M25.5 102 C9.54 100.27, 0.09 92.91, 0 76.5 M25.5 102 C9.16 101.08, 0.26 93.53, 0 76.5 M0 76.5 C-1.44 57.07, -1.45 37.91, 0 25.5 M0 76.5 C1.36 60.13, 0.09 41.31, 0 25.5 M0 25.5 C-0.75 7.75, 8.9 -1.55, 25.5 0 M0 25.5 C0.58 8.21, 6.6 -2.28, 25.5 0" stroke="#1e1e1e" stroke-width="4" fill="none"></path></g><g transform="translate(861.1801003639607 279.2543595076496) rotate(0 99.609375 36)"><text x="99.609375" y="0" font-family="Cascadia, Segoe UI Emoji" font-size="20px" fill="#1e1e1e" text-anchor="middle" style="white-space: pre;" direction="ltr" dominant-baseline="text-before-edge">Heating Service</text><text x="99.609375" y="24" font-family="Cascadia, Segoe UI Emoji" font-size="20px" fill="#1e1e1e" text-anchor="middle" style="white-space: pre;" direction="ltr" dominant-baseline="text-before-edge"></text><text x="99.609375" y="48" font-family="Cascadia, Segoe UI Emoji" font-size="20px" fill="#1e1e1e" text-anchor="middle" style="white-space: pre;" direction="ltr" dominant-baseline="text-before-edge">C# | ASP.Net Core</text></g><g stroke-linecap="round"><g transform="translate(972.8547124602101 248.25783040732358) rotate(0 0.40252817639213845 -43.34479289451642)"><path d="M0.68 0.98 C0.58 -13.28, -0.5 -71.51, -0.77 -86 M-0.42 0.44 C-0.11 -14.1, 1.26 -72.95, 1.58 -87.67" stroke="#1e1e1e" stroke-width="4" fill="none"></path></g><g transform="translate(972.8547124602101 248.25783040732358) rotate(0 0.40252817639213845 -43.34479289451642)"><path d="M0.8 -88.73 L5.85 -75.85 L-6.45 -72.71 L-0.1 -86.11" stroke="none" stroke-width="0" fill="#1e1e1e" fill-rule="evenodd"></path><path d="M2.8 -88.52 C4.31 -84.86, 6.06 -80.99, 6.42 -72.53 M2.11 -88.31 C3.37 -83.95, 6 -79.46, 7.75 -73.46 M6.65 -72.99 C4.43 -75.18, 0.34 -74.73, -3.93 -73.33 M7.5 -74.15 C2.76 -74.61, -0.6 -74.62, -4.77 -74.07 M-6.51 -75.4 C-2.77 -77.9, -1.01 -80.49, 2.65 -87.39 M-5.28 -73.54 C-3.68 -77.77, -0.97 -81.47, 1.5 -88.08 M1.58 -87.67 C1.58 -87.67, 1.58 -87.67, 1.58 -87.67 M1.58 -87.67 C1.58 -87.67, 1.58 -87.67, 1.58 -87.67" stroke="#1e1e1e" stroke-width="4" fill="none"></path></g></g><mask></mask><g stroke-linecap="round"><g transform="translate(819.0694821887605 305.56025572285364) rotate(0 -65.07584588637758 0.14842751696707523)"><path d="M1.14 0.86 C-20.63 0.74, -108.3 -0.53, -130.46 -0.56 M0.27 0.26 C-21.64 0.29, -109.66 0.95, -131.29 0.68" stroke="#1e1e1e" stroke-width="4" fill="none"></path></g><g transform="translate(819.0694821887605 305.56025572285364) rotate(0 -65.07584588637758 0.14842751696707523)"><path d="M-130.4 2.35 L-118.1 -5.87 L-117.65 8.12 L-129.84 -0.8" stroke="none" stroke-width="0" fill="#1e1e1e" fill-rule="evenodd"></path><path d="M-130.22 0.96 C-127.76 -2.84, -122.02 -3.82, -116.34 -6.49 M-131.37 0.27 C-127.11 -1.02, -123.47 -2.32, -117.23 -6.35 M-117.01 -5.15 C-116.91 -1.39, -117.66 0.63, -118.89 7.95 M-117.63 -5.81 C-117.94 -1.07, -118.25 3.56, -118.14 7.51 M-117.8 7.75 C-119.9 4.38, -124.92 4.64, -132.11 -0.7 M-117.11 6.33 C-120.39 5.38, -122.66 5.19, -131.8 1.36 M-131.29 0.68 C-131.29 0.68, -131.29 0.68, -131.29 0.68 M-131.29 0.68 C-131.29 0.68, -131.29 0.68, -131.29 0.68" stroke="#1e1e1e" stroke-width="4" fill="none"></path></g></g><mask></mask><g stroke-linecap="round"><g transform="translate(940.7971420143813 161.35277127652432) rotate(0 0.5935408237176034 44.345504351276844)"><path d="M-0.4 0.64 C-0.47 15.21, 0.47 72.95, 0.73 87.43 M1.59 -0.07 C1.32 14.66, 0.23 73.97, 0.13 88.76" stroke="#1e1e1e" stroke-width="4" fill="none"></path></g><g transform="translate(940.7971420143813 161.35277127652432) rotate(0 0.5935408237176034 44.345504351276844)"><path d="M1.19 89.24 L-7.96 73.75 L7.1 76.79 L-0.06 87.71" stroke="none" stroke-width="0" fill="#1e1e1e" fill-rule="evenodd"></path><path d="M0.93 89.59 C-2.82 84.71, -5.15 78.36, -7.27 73.99 M0.3 88.58 C-2.3 83.61, -4.54 78.56, -5.74 74.37 M-6.41 76.34 C-4.18 76.04, -0.05 74.55, 5.82 76.48 M-5.6 74.57 C-2.34 74.97, 1.54 75.07, 6.23 75.61 M6.82 75.59 C3.44 81.54, 3.03 84.39, 1.16 89.78 M6.03 75.18 C4.68 79.46, 3.39 83.12, -0.23 88.92 M0.13 88.76 C0.13 88.76, 0.13 88.76, 0.13 88.76 M0.13 88.76 C0.13 88.76, 0.13 88.76, 0.13 88.76" stroke="#1e1e1e" stroke-width="4" fill="none"></path></g></g><mask></mask><g stroke-linecap="round"><g transform="translate(690.849842757948 334.3815625322962) rotate(0 63.18708038487148 0.16202943793211944)"><path d="M0.07 0.93 C21.17 0.97, 106.54 1.16, 127.72 0.92 M-1.35 0.38 C19.45 0.03, 104.7 -0.74, 126.51 -0.72" stroke="#1e1e1e" stroke-width="4" fill="none"></path></g><g transform="translate(690.849842757948 334.3815625322962) rotate(0 63.18708038487148 0.16202943793211944)"><path d="M126.56 -0.48 L114.39 3.88 L114.66 -7.15 L126.49 0.52" stroke="none" stroke-width="0" fill="#1e1e1e" fill-rule="evenodd"></path><path d="M127.67 -1.34 C122.33 0.51, 115.17 3.35, 111.94 5.82 M126.69 -1.44 C121.91 1.48, 118.83 3.2, 112.55 5.59 M113.58 4.65 C112.75 1.53, 113.79 -2.6, 113.97 -6.2 M113.53 6.15 C112.62 0.4, 112.97 -4.42, 112.88 -6.7 M112.62 -6.36 C118.54 -6.23, 122.15 -3.27, 125.38 0.15 M112.23 -6.57 C118.57 -4.46, 123.99 -1.65, 126.75 0.02 M126.51 -0.72 C126.51 -0.72, 126.51 -0.72, 126.51 -0.72 M126.51 -0.72 C126.51 -0.72, 126.51 -0.72, 126.51 -0.72" stroke="#1e1e1e" stroke-width="4" fill="none"></path></g></g><mask></mask><g transform="translate(718.0445827583126 351.10716609209686) rotate(0 35.15625 12)"><text x="0" y="0" font-family="Cascadia, Segoe UI Emoji" font-size="20px" fill="#1e1e1e" text-anchor="start" style="white-space: pre;" direction="ltr" dominant-baseline="text-before-edge">HTTP/2</text></g><g transform="translate(280.55096061683446 358.65764676106505) rotate(0 58.59375 12)"><text x="0" y="0" font-family="Cascadia, Segoe UI Emoji" font-size="20px" fill="#1e1e1e" text-anchor="start" style="white-space: pre;" direction="ltr" dominant-baseline="text-before-edge">Modbus TCP</text></g><g stroke-linecap="round"><g transform="translate(1227.10707251676 301.2340199750733) rotate(0 -63.046922432557835 0.5875459747602463)"><path d="M-0.33 -0.73 C-21.58 -0.77, -105.73 0.24, -126.72 0.17 M1.69 1.5 C-19.79 1.65, -106.36 2.12, -127.79 1.8" stroke="#1e1e1e" stroke-width="4" fill="none"></path></g><g transform="translate(1227.10707251676 301.2340199750733) rotate(0 -63.046922432557835 0.5875459747602463)"><path d="M-129.58 1.06 L-115.98 -4.66 L-113.17 9.79 L-127.67 2.37" stroke="none" stroke-width="0" fill="#1e1e1e" fill-rule="evenodd"></path><path d="M-128.7 1.51 C-122.66 -0.14, -119.34 -2.86, -115.47 -4.78 M-127.66 1.69 C-123.41 -0.47, -117.5 -3.06, -114.64 -4.99 M-115.22 -3.79 C-112.93 -0.63, -113.83 1.29, -113.1 8.72 M-114.61 -5.05 C-113.64 0.34, -114.4 5.7, -114.17 8.53 M-114.03 7.02 C-118.38 6.75, -120.05 4.22, -128.65 2.21 M-113.51 8.41 C-118.79 6.12, -121.53 4.87, -128.23 2.21 M-127.79 1.8 C-127.79 1.8, -127.79 1.8, -127.79 1.8 M-127.79 1.8 C-127.79 1.8, -127.79 1.8, -127.79 1.8" stroke="#1e1e1e" stroke-width="4" fill="none"></path></g></g><mask></mask><g stroke-linecap="round"><g transform="translate(1107.7228281017299 333.6358468432769) rotate(0 60.35014568566214 0.16634510277305026)"><path d="M0.11 0.71 C20.33 0.78, 101.84 -0.38, 122 -0.48 M-1.3 0.04 C18.72 0.36, 100.33 0.57, 121.13 0.81" stroke="#1e1e1e" stroke-width="4" fill="none"></path></g><g transform="translate(1107.7228281017299 333.6358468432769) rotate(0 60.35014568566214 0.16634510277305026)"><path d="M119.62 0.46 L109.25 8.09 L107.92 -4.76 L119.71 2.8" stroke="none" stroke-width="0" fill="#1e1e1e" fill-rule="evenodd"></path><path d="M122.02 1 C115.65 2.05, 111.54 6.55, 107.11 5.75 M121.82 1.25 C115.95 2.67, 112.73 4.27, 106.85 6.74 M106.35 6.95 C108.29 5.08, 107.72 1.42, 108.01 -4.91 M107.74 7.56 C107.91 2.8, 107.02 -1.07, 107.31 -6.1 M107.97 -4.17 C113.13 -4.54, 116.02 -1.92, 120.89 1.58 M106.85 -5.55 C113.17 -3.27, 117.6 -0.69, 121.27 1.33 M121.13 0.81 C121.13 0.81, 121.13 0.81, 121.13 0.81 M121.13 0.81 C121.13 0.81, 121.13 0.81, 121.13 0.81" stroke="#1e1e1e" stroke-width="4" fill="none"></path></g></g><mask></mask><g transform="translate(1123.2651428590584 347.847097065836) rotate(0 46.875 12)"><text x="0" y="0" font-family="Cascadia, Segoe UI Emoji" font-size="20px" fill="#1e1e1e" text-anchor="start" style="white-space: pre;" direction="ltr" dominant-baseline="text-before-edge">HTTP/1.1</text></g><g stroke-linecap="round" transform="translate(423.84362317458545 270.5290953002092) rotate(0 125 51)"><path d="M25.5 0 M25.5 0 C78.19 1.66, 132.26 2.2, 224.5 0 M25.5 0 C96.8 -0.12, 166.99 -0.33, 224.5 0 M224.5 0 C243.26 0.58, 250.53 8.13, 250 25.5 M224.5 0 C240.47 -1.05, 251.47 9.62, 250 25.5 M250 25.5 C250.28 46.62, 251.18 63.65, 250 76.5 M250 25.5 C251.48 36.98, 250.59 48.39, 250 76.5 M250 76.5 C248.01 93.54, 241.62 102.93, 224.5 102 M250 76.5 C248.78 94.9, 242.95 103.24, 224.5 102 M224.5 102 C157.33 101.15, 91.08 102.28, 25.5 102 M224.5 102 C148.97 103.99, 74.01 103.74, 25.5 102 M25.5 102 C9.42 103.1, -0.01 93.21, 0 76.5 M25.5 102 C10.72 103.35, 0.68 94.4, 0 76.5 M0 76.5 C2.31 65.32, -0.11 51.4, 0 25.5 M0 76.5 C1.27 65.7, 1 54.83, 0 25.5 M0 25.5 C-0.64 7.52, 8.69 1.97, 25.5 0 M0 25.5 C2.28 8.51, 8.17 -1.74, 25.5 0" stroke="#1e1e1e" stroke-width="4" fill="none"></path></g><g transform="translate(449.23424817458545 285.5290953002092) rotate(0 99.609375 36)"><text x="99.609375" y="0" font-family="Cascadia, Segoe UI Emoji" font-size="20px" fill="#1e1e1e" text-anchor="middle" style="white-space: pre;" direction="ltr" dominant-baseline="text-before-edge">Heat Pump Service</text><text x="99.609375" y="24" font-family="Cascadia, Segoe UI Emoji" font-size="20px" fill="#1e1e1e" text-anchor="middle" style="white-space: pre;" direction="ltr" dominant-baseline="text-before-edge"></text><text x="99.609375" y="48" font-family="Cascadia, Segoe UI Emoji" font-size="20px" fill="#1e1e1e" text-anchor="middle" style="white-space: pre;" direction="ltr" dominant-baseline="text-before-edge">C++ | gRPC</text></g><g stroke-linecap="round" transform="translate(10 269.7066736635489) rotate(0 125 51)"><path d="M25.5 0 M25.5 0 C83.09 -0.01, 135.98 -1.66, 224.5 0 M25.5 0 C92.03 -1.45, 158.6 -0.61, 224.5 0 M224.5 0 C242.77 0.76, 250.9 7.19, 250 25.5 M224.5 0 C240.28 -1.87, 248.61 8.12, 250 25.5 M250 25.5 C250.21 37.31, 249.69 48.33, 250 76.5 M250 25.5 C249.5 42.04, 251.15 57.62, 250 76.5 M250 76.5 C250.6 94.49, 241.43 102.96, 224.5 102 M250 76.5 C251.47 94.41, 242 100.98, 224.5 102 M224.5 102 C161.88 104.78, 101.94 104.4, 25.5 102 M224.5 102 C155.53 101.91, 86.79 101.99, 25.5 102 M25.5 102 C6.83 101.03, 0.38 94.97, 0 76.5 M25.5 102 C9.01 103.38, -1.45 94.18, 0 76.5 M0 76.5 C-0.67 60.45, -1.63 41.86, 0 25.5 M0 76.5 C0.66 62.28, -0.08 49.75, 0 25.5 M0 25.5 C-1.39 6.65, 8.47 1.82, 25.5 0 M0 25.5 C-1.86 8.39, 9.15 1.61, 25.5 0" stroke="#1e1e1e" stroke-width="4" fill="none"></path></g><g transform="translate(82.265625 308.7066736635489) rotate(0 52.734375 12)"><text x="52.734375" y="0" font-family="Cascadia, Segoe UI Emoji" font-size="20px" fill="#1e1e1e" text-anchor="middle" style="white-space: pre;" direction="ltr" dominant-baseline="text-before-edge">Heat Pump</text></g><g stroke-linecap="round" transform="translate(1249.2735624084835 263.25793848338134) rotate(0 137.5 51)"><path d="M25.5 0 M25.5 0 C87.75 2.93, 150.91 2.7, 249.5 0 M25.5 0 C73.24 -0.76, 121.02 -0.94, 249.5 0 M249.5 0 C266.42 0.29, 274.7 6.77, 275 25.5 M249.5 0 C267.77 -0.67, 276.87 6.87, 275 25.5 M275 25.5 C275.98 42.15, 276.04 57.48, 275 76.5 M275 25.5 C274.28 41.51, 275.83 56.07, 275 76.5 M275 76.5 C276.28 94.26, 265.73 103.23, 249.5 102 M275 76.5 C276.19 94.33, 268.04 103.19, 249.5 102 M249.5 102 C201.23 101.34, 154.63 100.42, 25.5 102 M249.5 102 C169.42 102.76, 88.29 103.82, 25.5 102 M25.5 102 C9.83 100.85, -0.23 95.23, 0 76.5 M25.5 102 C8.02 100.71, -1.52 91.21, 0 76.5 M0 76.5 C1.08 63.74, -1.39 54.99, 0 25.5 M0 76.5 C1.26 60.88, 0.4 47.79, 0 25.5 M0 25.5 C-0.1 10.24, 9.5 0, 25.5 0 M0 25.5 C1.15 10.21, 9.77 0.89, 25.5 0" stroke="#1e1e1e" stroke-width="4" fill="none"></path></g><g transform="translate(1269.5860624084835 278.25793848338134) rotate(0 117.1875 36)"><text x="117.1875" y="0" font-family="Cascadia, Segoe UI Emoji" font-size="20px" fill="#1e1e1e" text-anchor="middle" style="white-space: pre;" direction="ltr" dominant-baseline="text-before-edge">Frontend</text><text x="117.1875" y="24" font-family="Cascadia, Segoe UI Emoji" font-size="20px" fill="#1e1e1e" text-anchor="middle" style="white-space: pre;" direction="ltr" dominant-baseline="text-before-edge"></text><text x="117.1875" y="48" font-family="Cascadia, Segoe UI Emoji" font-size="20px" fill="#1e1e1e" text-anchor="middle" style="white-space: pre;" direction="ltr" dominant-baseline="text-before-edge">TypeScript | NEXT.js</text></g></svg>