<svg version="1.1" xmlns="http://www.w3.org/2000/svg" viewBox="0 0 1612.5891754812824 418.2756012384395" width="1612.5891754812824" height="418.2756012384395">
  <!-- svg-source:excalidraw -->
  
  <defs>
    <style class="style-fonts">
      @font-face {
        font-family: "Virgil";
        src: url("https://excalidraw.com/Virgil.woff2");
      }
      @font-face {
        font-family: "Cascadia";
        src: url("https://excalidraw.com/Cascadia.woff2");
      }
    </style>
  </defs>
  <rect x="0" y="0" width="1612.5891754812824" height="418.2756012384395" fill="#ffffff"></rect><g stroke-linecap="round"><g transform="translate(272.7688657501243 340.661815628467) rotate(0 99.41024586189508 0.1818975536133678)"><path d="M-0.44 -1.18 C32.73 -1.23, 165.84 -0.18, 199.26 0.01 M1.54 0.81 C34.52 0.94, 165.24 1.48, 198.27 1.55" stroke="#0b00c0" stroke-width="1" fill="none"></path></g><g transform="translate(272.7688657501243 340.661815628467) rotate(0 99.41024586189508 0.1818975536133678)"><path d="M198.69 3.28 L186.65 9.7 L183.56 -6.76 L198.04 1.44" stroke="none" stroke-width="0" fill="#0b00c0" fill-rule="evenodd"></path><path d="M196.8 1.47 C193.94 4.47, 189.51 4.08, 184.59 8.51 M198.75 1.07 C193.65 3.33, 189.99 5.07, 184.47 8.16 M185.41 7.81 C184.39 3.12, 184.35 -0.25, 183.48 -3.87 M185.15 7.65 C185.23 3.73, 185.01 -1.49, 184.96 -5.24 M185.33 -6.31 C189.46 -3.86, 194.42 0.41, 197.82 1.45 M184.94 -4.69 C188.26 -4.14, 191.04 -1.82, 198.31 2.18 M198.27 1.55 C198.27 1.55, 198.27 1.55, 198.27 1.55 M198.27 1.55 C198.27 1.55, 198.27 1.55, 198.27 1.55" stroke="#0b00c0" stroke-width="1" fill="none"></path></g></g><mask></mask><g stroke-linecap="round"><g transform="translate(470.3445718559541 307.69760437986446) rotate(0 -99.9851226871719 0.18276808078869067)"><path d="M0.19 0.73 C-33.07 0.64, -166.76 -0.19, -200.16 -0.46 M-1.17 0.07 C-33.99 0.13, -165.05 0.85, -197.81 0.83" stroke="#5ec4c3" stroke-width="1" fill="none"></path></g><g transform="translate(470.3445718559541 307.69760437986446) rotate(0 -99.9851226871719 0.18276808078869067)"><path d="M-197.47 1.26 L-186.11 -6.55 L-185.64 8.95 L-199.59 -0.21" stroke="none" stroke-width="0" fill="#5ec4c3" fill-rule="evenodd"></path><path d="M-196.89 -0.03 C-194.98 -1.75, -192.09 -1.58, -183.44 -4.19 M-197.44 0.68 C-194.9 -0.85, -191.84 -2.88, -183.73 -5.95 M-183.81 -5.08 C-184.35 0.15, -183.74 4.67, -184.21 8.22 M-184.22 -6.03 C-183.67 -1.75, -184.05 2.46, -184.06 7.07 M-184.71 7.31 C-188.05 5.44, -193.7 4.05, -197.01 1.17 M-183.94 7.23 C-187.93 5.86, -192.78 2.97, -197.57 0.52 M-197.81 0.83 C-197.81 0.83, -197.81 0.83, -197.81 0.83 M-197.81 0.83 C-197.81 0.83, -197.81 0.83, -197.81 0.83" stroke="#5ec4c3" stroke-width="1" fill="none"></path></g></g><mask></mask><g stroke-linecap="round" transform="translate(932.89161043637 10) rotate(0 118 70.5)"><path d="M151.11 2.54 C165.26 3.67, 179.08 8.62, 190.65 14.29 C202.22 19.95, 213.24 28.47, 220.55 36.53 C227.87 44.58, 232.63 53.85, 234.55 62.63 C236.46 71.42, 235.92 80.51, 232.03 89.25 C228.14 97.99, 220.57 107.99, 211.21 115.06 C201.86 122.12, 189.14 127.45, 175.87 131.63 C162.6 135.82, 146.6 139.09, 131.62 140.17 C116.64 141.26, 100.56 140.56, 85.97 138.12 C71.38 135.68, 55.98 131.01, 44.08 125.52 C32.17 120.03, 21.68 113.01, 14.53 105.18 C7.38 97.35, 2.72 87.51, 1.18 78.56 C-0.36 69.61, 1.15 59.95, 5.28 51.47 C9.42 42.98, 16.66 34.84, 25.99 27.65 C35.31 20.46, 48.05 12.96, 61.21 8.33 C74.36 3.69, 87.74 0.19, 104.94 -0.16 C122.15 -0.51, 152.83 4.47, 164.44 6.23 C176.04 7.99, 175.3 9.46, 174.56 10.41 M124.88 -0.91 C139.23 -1.25, 157.42 3.92, 170.93 8.02 C184.44 12.12, 196.2 17.29, 205.92 23.69 C215.63 30.1, 224.22 37.72, 229.24 46.45 C234.27 55.18, 236.93 66.89, 236.08 76.08 C235.23 85.27, 230.64 93.6, 224.17 101.59 C217.7 109.58, 208.6 118.07, 197.26 124.04 C185.91 130, 170.63 134.36, 156.1 137.39 C141.58 140.42, 124.85 142.57, 110.11 142.23 C95.37 141.88, 81.12 139.54, 67.68 135.31 C54.24 131.07, 39.82 123.63, 29.46 116.84 C19.11 110.05, 10.47 102.95, 5.56 94.57 C0.65 86.2, -1.31 75.69, 0.01 66.6 C1.33 57.52, 6.74 48.38, 13.48 40.05 C20.22 31.73, 29.57 22.94, 40.45 16.65 C51.32 10.37, 64.73 5.29, 78.73 2.35 C92.73 -0.59, 116.64 -1.05, 124.43 -0.99 C132.21 -0.93, 125.47 1.34, 125.44 2.72" stroke="#2c597e" stroke-width="1" fill="none"></path></g><g transform="translate(992.3592602563574 68.6489719263484) rotate(0 58.59375 12)"><text x="58.59375" y="0" font-family="Cascadia, Segoe UI Emoji" font-size="20px" fill="#2c597e" text-anchor="middle" style="white-space: pre;" direction="ltr" dominant-baseline="text-before-edge">PostgreSQL</text></g><g stroke-linecap="round" transform="translate(931.7254017887026 264.2543595076496) rotate(0 125 51)"><path d="M25.5 0 M25.5 0 C85.6 -3.08, 148.5 -2.52, 224.5 0 M25.5 0 C65.36 0.99, 106.83 1.07, 224.5 0 M224.5 0 C243.13 0.85, 251.21 6.56, 250 25.5 M224.5 0 C241.84 -0.54, 250.39 7.09, 250 25.5 M250 25.5 C249.97 41.03, 250.88 53.59, 250 76.5 M250 25.5 C249.41 36.28, 249.51 49.44, 250 76.5 M250 76.5 C248.76 94.83, 239.62 103.31, 224.5 102 M250 76.5 C251.62 95.47, 243.68 104.05, 224.5 102 M224.5 102 C169.7 100.74, 112.39 99.66, 25.5 102 M224.5 102 C172.2 100.94, 122.16 101.4, 25.5 102 M25.5 102 C9.54 100.27, 0.09 92.91, 0 76.5 M25.5 102 C9.16 101.08, 0.26 93.53, 0 76.5 M0 76.5 C-1.44 57.07, -1.45 37.91, 0 25.5 M0 76.5 C1.36 60.13, 0.09 41.31, 0 25.5 M0 25.5 C-0.75 7.75, 8.9 -1.55, 25.5 0 M0 25.5 C0.58 8.21, 6.6 -2.28, 25.5 0" stroke="#6a4097" stroke-width="1" fill="none"></path></g><g transform="translate(968.8347767887026 303.2543595076496) rotate(0 87.890625 12)"><text x="87.890625" y="0" font-family="Cascadia, Segoe UI Emoji" font-size="20px" fill="#6a4097" text-anchor="middle" style="white-space: pre;" direction="ltr" dominant-baseline="text-before-edge">Heating Service</text></g><g stroke-linecap="round"><g transform="translate(1068.790638884952 248.25783040732358) rotate(0 0.40252817639213845 -43.34479289451642)"><path d="M0.68 0.98 C0.58 -13.28, -0.5 -71.51, -0.77 -86 M-0.42 0.44 C-0.11 -14.1, 1.26 -72.95, 1.58 -87.67" stroke="#6a4097" stroke-width="1" fill="none"></path></g><g transform="translate(1068.790638884952 248.25783040732358) rotate(0 0.40252817639213845 -43.34479289451642)"><path d="M0.8 -88.73 L5.85 -75.85 L-6.45 -72.71 L-0.1 -86.11" stroke="none" stroke-width="0" fill="#6a4097" fill-rule="evenodd"></path><path d="M2.8 -88.52 C4.31 -84.86, 6.06 -80.99, 6.42 -72.53 M2.11 -88.31 C3.37 -83.95, 6 -79.46, 7.75 -73.46 M6.65 -72.99 C4.43 -75.18, 0.34 -74.73, -3.93 -73.33 M7.5 -74.15 C2.76 -74.61, -0.6 -74.62, -4.77 -74.07 M-6.51 -75.4 C-2.77 -77.9, -1.01 -80.49, 2.65 -87.39 M-5.28 -73.54 C-3.68 -77.77, -0.97 -81.47, 1.5 -88.08 M1.58 -87.67 C1.58 -87.67, 1.58 -87.67, 1.58 -87.67 M1.58 -87.67 C1.58 -87.67, 1.58 -87.67, 1.58 -87.67" stroke="#6a4097" stroke-width="1" fill="none"></path></g></g><mask></mask><g stroke-linecap="round"><g transform="translate(915.0054086135024 306.7384726422248) rotate(0 -80.08410052897636 0.14842751696707523)"><path d="M1.14 0.86 C-25.63 0.74, -133.31 -0.53, -160.47 -0.56 M0.27 0.26 C-26.65 0.29, -134.67 0.95, -161.3 0.68" stroke="#6a4097" stroke-width="1" fill="none"></path></g><g transform="translate(915.0054086135024 306.7384726422248) rotate(0 -80.08410052897636 0.14842751696707523)"><path d="M-160.42 2.35 L-148.12 -5.87 L-147.67 8.11 L-159.85 -0.8" stroke="none" stroke-width="0" fill="#6a4097" fill-rule="evenodd"></path><path d="M-160.23 0.96 C-157.78 -2.84, -152.04 -3.82, -146.36 -6.49 M-161.38 0.27 C-157.13 -1.02, -153.49 -2.32, -147.25 -6.35 M-147.03 -5.15 C-146.93 -1.39, -147.67 0.62, -148.91 7.94 M-147.65 -5.82 C-147.96 -1.07, -148.27 3.56, -148.15 7.51 M-147.81 7.74 C-149.91 4.37, -154.94 4.64, -162.13 -0.7 M-147.12 6.32 C-150.4 5.38, -152.68 5.19, -161.81 1.36 M-161.3 0.68 C-161.3 0.68, -161.3 0.68, -161.3 0.68 M-161.3 0.68 C-161.3 0.68, -161.3 0.68, -161.3 0.68" stroke="#6a4097" stroke-width="1" fill="none"></path></g></g><mask></mask><g stroke-linecap="round"><g transform="translate(1036.7330684391231 161.35277127652432) rotate(0 0.5935408237176034 44.345504351276844)"><path d="M-0.4 0.64 C-0.47 15.21, 0.47 72.95, 0.73 87.43 M1.59 -0.07 C1.32 14.66, 0.23 73.97, 0.13 88.76" stroke="#2c597e" stroke-width="1" fill="none"></path></g><g transform="translate(1036.7330684391231 161.35277127652432) rotate(0 0.5935408237176034 44.345504351276844)"><path d="M1.19 89.24 L-7.96 73.75 L7.1 76.79 L-0.06 87.71" stroke="none" stroke-width="0" fill="#2c597e" fill-rule="evenodd"></path><path d="M0.93 89.59 C-2.82 84.71, -5.15 78.36, -7.27 73.99 M0.3 88.58 C-2.3 83.61, -4.54 78.56, -5.74 74.37 M-6.41 76.34 C-4.18 76.04, -0.05 74.55, 5.82 76.48 M-5.6 74.57 C-2.34 74.97, 1.54 75.07, 6.23 75.61 M6.82 75.59 C3.44 81.54, 3.03 84.39, 1.16 89.78 M6.03 75.18 C4.68 79.46, 3.39 83.12, -0.23 88.92 M0.13 88.76 C0.13 88.76, 0.13 88.76, 0.13 88.76 M0.13 88.76 C0.13 88.76, 0.13 88.76, 0.13 88.76" stroke="#2c597e" stroke-width="1" fill="none"></path></g></g><mask></mask><g stroke-linecap="round"><g transform="translate(756.7078127700111 334.77104136649274) rotate(0 78.22605859121086 0.16202943793211944)"><path d="M0.07 0.93 C26.18 0.97, 131.6 1.16, 157.8 0.92 M-1.35 0.38 C24.46 0.03, 129.77 -0.74, 156.59 -0.72" stroke="#5ec4c3" stroke-width="1" fill="none"></path></g><g transform="translate(756.7078127700111 334.77104136649274) rotate(0 78.22605859121086 0.16202943793211944)"><path d="M156.64 -0.48 L144.46 3.87 L144.75 -7.16 L156.56 0.52" stroke="none" stroke-width="0" fill="#5ec4c3" fill-rule="evenodd"></path><path d="M157.75 -1.34 C152.4 0.5, 145.24 3.34, 142.01 5.81 M156.77 -1.44 C151.98 1.48, 148.91 3.2, 142.62 5.57 M143.65 4.64 C142.82 1.51, 143.87 -2.61, 144.06 -6.21 M143.6 6.13 C142.7 0.39, 143.05 -4.43, 142.97 -6.71 M142.71 -6.37 C148.62 -6.23, 152.23 -3.27, 155.46 0.15 M142.32 -6.58 C148.65 -4.47, 154.07 -1.66, 156.82 0.02 M156.59 -0.72 C156.59 -0.72, 156.59 -0.72, 156.59 -0.72 M156.59 -0.72 C156.59 -0.72, 156.59 -0.72, 156.59 -0.72" stroke="#5ec4c3" stroke-width="1" fill="none"></path></g></g><mask></mask><g transform="translate(798.1694806878832 352.1975818503845) rotate(0 35.15625 12)"><text x="0" y="0" font-family="Cascadia, Segoe UI Emoji" font-size="20px" fill="#5ec4c3" text-anchor="start" style="white-space: pre;" direction="ltr" dominant-baseline="text-before-edge">HTTP/2</text></g><g transform="translate(960.4954722915734 381.00907114416253) rotate(0 99.609375 12)"><text x="0" y="0" font-family="Cascadia, Segoe UI Emoji" font-size="20px" fill="#6a4097" text-anchor="start" style="white-space: pre;" direction="ltr" dominant-baseline="text-before-edge">C# | ASP.Net Core</text></g><g transform="translate(306.37986388503407 353.7378556623604) rotate(0 58.59375 12)"><text x="0" y="0" font-family="Cascadia, Segoe UI Emoji" font-size="20px" fill="#0b00c0" text-anchor="start" style="white-space: pre;" direction="ltr" dominant-baseline="text-before-edge">Modbus TCP</text></g><g transform="translate(561.5791766141986 384.2756012384395) rotate(0 58.59375 12)"><text x="0" y="0" font-family="Cascadia, Segoe UI Emoji" font-size="20px" fill="#5ec4c3" text-anchor="start" style="white-space: pre;" direction="ltr" dominant-baseline="text-before-edge">C++ | gRPC</text></g><g transform="translate(1363.6507459387074 375.789307866845) rotate(0 117.1875 12)"><text x="0" y="0" font-family="Cascadia, Segoe UI Emoji" font-size="20px" fill="#0b7285" text-anchor="start" style="white-space: pre;" direction="ltr" dominant-baseline="text-before-edge">TypeScript | NEXT.js</text></g><g stroke-linecap="round"><g transform="translate(1331.8831494655815 301.2340199750733) rotate(0 -67.4669976945977 0.5875459747602463)"><path d="M-0.33 -0.73 C-23.05 -0.77, -113.1 0.24, -135.56 0.17 M1.69 1.5 C-21.27 1.65, -113.72 2.12, -136.63 1.8" stroke="#0b7285" stroke-width="1" fill="none"></path></g><g transform="translate(1331.8831494655815 301.2340199750733) rotate(0 -67.4669976945977 0.5875459747602463)"><path d="M-138.42 1.06 L-124.82 -4.66 L-122.01 9.79 L-136.51 2.37" stroke="none" stroke-width="0" fill="#0b7285" fill-rule="evenodd"></path><path d="M-137.54 1.51 C-131.5 -0.14, -128.18 -2.86, -124.31 -4.78 M-136.5 1.69 C-132.25 -0.47, -126.34 -3.06, -123.48 -4.99 M-124.06 -3.79 C-121.77 -0.63, -122.67 1.29, -121.94 8.72 M-123.45 -5.05 C-122.48 0.34, -123.24 5.7, -123.01 8.52 M-122.87 7.01 C-127.22 6.74, -128.89 4.22, -137.49 2.21 M-122.35 8.41 C-127.63 6.12, -130.37 4.87, -137.07 2.21 M-136.63 1.8 C-136.63 1.8, -136.63 1.8, -136.63 1.8 M-136.63 1.8 C-136.63 1.8, -136.63 1.8, -136.63 1.8" stroke="#0b7285" stroke-width="1" fill="none"></path></g></g><mask></mask><g stroke-linecap="round"><g transform="translate(1203.6587545264717 333.6358468432769) rotate(0 66.60499827329215 0.16634510277305026)"><path d="M0.11 0.71 C22.41 0.78, 112.27 -0.38, 134.51 -0.48 M-1.3 0.04 C20.81 0.36, 110.75 0.57, 133.64 0.81" stroke="#6a4097" stroke-width="1" fill="none"></path></g><g transform="translate(1203.6587545264717 333.6358468432769) rotate(0 66.60499827329215 0.16634510277305026)"><path d="M132.13 0.46 L121.76 8.1 L120.42 -4.75 L132.22 2.8" stroke="none" stroke-width="0" fill="#6a4097" fill-rule="evenodd"></path><path d="M134.53 1 C128.16 2.05, 124.05 6.55, 119.62 5.76 M134.33 1.25 C128.46 2.67, 125.24 4.28, 119.37 6.75 M118.87 6.96 C120.8 5.09, 120.23 1.43, 120.51 -4.9 M120.25 7.57 C120.42 2.81, 119.53 -1.06, 119.82 -6.09 M120.47 -4.16 C125.63 -4.53, 128.53 -1.91, 133.4 1.58 M119.35 -5.54 C125.68 -3.27, 130.1 -0.69, 133.78 1.33 M133.64 0.81 C133.64 0.81, 133.64 0.81, 133.64 0.81 M133.64 0.81 C133.64 0.81, 133.64 0.81, 133.64 0.81" stroke="#6a4097" stroke-width="1" fill="none"></path></g></g><mask></mask><g transform="translate(1222.8909126078288 347.847097065836) rotate(0 46.875 12)"><text x="0" y="0" font-family="Cascadia, Segoe UI Emoji" font-size="20px" fill="#6a4097" text-anchor="start" style="white-space: pre;" direction="ltr" dominant-baseline="text-before-edge">HTTP/1.1</text></g><g stroke-linecap="round" transform="translate(487.80090745774646 271.7590430748854) rotate(0 125 51)"><path d="M25.5 0 M25.5 0 C78.19 1.66, 132.26 2.2, 224.5 0 M25.5 0 C96.8 -0.12, 166.99 -0.33, 224.5 0 M224.5 0 C243.26 0.58, 250.53 8.13, 250 25.5 M224.5 0 C240.47 -1.05, 251.47 9.62, 250 25.5 M250 25.5 C250.28 46.62, 251.18 63.65, 250 76.5 M250 25.5 C251.48 36.98, 250.59 48.39, 250 76.5 M250 76.5 C248.01 93.54, 241.62 102.93, 224.5 102 M250 76.5 C248.78 94.9, 242.95 103.24, 224.5 102 M224.5 102 C157.33 101.15, 91.08 102.28, 25.5 102 M224.5 102 C148.97 103.99, 74.01 103.74, 25.5 102 M25.5 102 C9.42 103.1, -0.01 93.21, 0 76.5 M25.5 102 C10.72 103.35, 0.68 94.4, 0 76.5 M0 76.5 C2.31 65.32, -0.11 51.4, 0 25.5 M0 76.5 C1.27 65.7, 1 54.83, 0 25.5 M0 25.5 C-0.64 7.52, 8.69 1.97, 25.5 0 M0 25.5 C2.28 8.51, 8.17 -1.74, 25.5 0" stroke="#5ec4c3" stroke-width="1" fill="none"></path></g><g transform="translate(513.1915324577465 310.7590430748854) rotate(0 99.609375 12)"><text x="99.609375" y="0" font-family="Cascadia, Segoe UI Emoji" font-size="20px" fill="#5ec4c3" text-anchor="middle" style="white-space: pre;" direction="ltr" dominant-baseline="text-before-edge">Heat Pump Service</text></g><g stroke-linecap="round" transform="translate(10 274.62646476225365) rotate(0 125 51)"><path d="M25.5 0 M25.5 0 C98.18 2.11, 170.32 1.25, 224.5 0 M25.5 0 C73.37 2.62, 119.78 1.62, 224.5 0 M224.5 0 C243.18 1.92, 251.08 9.01, 250 25.5 M224.5 0 C241.04 1.17, 251.89 6.4, 250 25.5 M250 25.5 C248.99 40.16, 249.41 59.03, 250 76.5 M250 25.5 C248.98 44.05, 249.27 62.21, 250 76.5 M250 76.5 C251.55 94.79, 240.36 100.47, 224.5 102 M250 76.5 C251.81 93.93, 240.22 102.33, 224.5 102 M224.5 102 C172.44 101.95, 117.02 102.62, 25.5 102 M224.5 102 C148.97 99.81, 73.92 99.56, 25.5 102 M25.5 102 C6.59 100.91, 1.8 92.53, 0 76.5 M25.5 102 C6.82 103.29, -0.89 92.42, 0 76.5 M0 76.5 C0 62.05, 1.63 50.21, 0 25.5 M0 76.5 C-0.96 60.84, -0.44 45.59, 0 25.5 M0 25.5 C1.28 9.33, 8.72 -1.53, 25.5 0 M0 25.5 C1.7 6.68, 9.24 -0.84, 25.5 0" stroke="#0b00c0" stroke-width="1" fill="none"></path></g><g transform="translate(82.265625 313.62646476225365) rotate(0 52.734375 12)"><text x="52.734375" y="0" font-family="Cascadia, Segoe UI Emoji" font-size="20px" fill="#0b00c0" text-anchor="middle" style="white-space: pre;" direction="ltr" dominant-baseline="text-before-edge">Heat Pump</text></g><g stroke-linecap="round" transform="translate(1352.5891754812824 263.25793848338134) rotate(0 125 51)"><path d="M25.5 0 M25.5 0 C80.46 3.23, 136.49 2.96, 224.5 0 M25.5 0 C67.97 -0.68, 110.48 -0.89, 224.5 0 M224.5 0 C241.42 0.29, 249.7 6.77, 250 25.5 M224.5 0 C242.77 -0.67, 251.87 6.87, 250 25.5 M250 25.5 C250.98 42.15, 251.04 57.48, 250 76.5 M250 25.5 C249.28 41.51, 250.83 56.07, 250 76.5 M250 76.5 C251.28 94.26, 240.73 103.23, 224.5 102 M250 76.5 C251.19 94.33, 243.04 103.19, 224.5 102 M224.5 102 C181.55 101.48, 140.53 100.41, 25.5 102 M224.5 102 C153.59 102.7, 81.45 103.93, 25.5 102 M25.5 102 C9.83 100.85, -0.23 95.23, 0 76.5 M25.5 102 C8.02 100.71, -1.52 91.21, 0 76.5 M0 76.5 C1.08 63.74, -1.39 54.99, 0 25.5 M0 76.5 C1.26 60.88, 0.4 47.79, 0 25.5 M0 25.5 C-0.1 10.24, 9.5 0, 25.5 0 M0 25.5 C1.15 10.21, 9.77 0.89, 25.5 0" stroke="#0b7285" stroke-width="1" fill="none"></path></g><g transform="translate(1430.7141754812824 302.25793848338134) rotate(0 46.875 12)"><text x="46.875" y="0" font-family="Cascadia, Segoe UI Emoji" font-size="20px" fill="#0b7285" text-anchor="middle" style="white-space: pre;" direction="ltr" dominant-baseline="text-before-edge">Frontend</text></g></svg>